# xmcd CD database file
#
# Track frame offsets:
#	150
#	10980
#	24537
#	44192
#	62145
#	73607
#	88372
#	98922
#	110932
#	125817
#	141585
#	155647
#	171532
#	191905
#
# Disc length: 2744 seconds
#
# Revision: 4
# Processed by: cddbd v1.5.1PL0 Copyright (c) Steve Scherf et al.
# Submitted via: CDex 1.51
#
DISCID=e80ab60e
DTITLE=Henning Stærk - Hit House
DYEAR=2000
DGENRE=Country
TTITLE0=I Can´t believe what you say cause I see what you do
TTITLE1=Black is black
TTITLE2=Belinda
TTITLE3=Stop the music
TTITLE4=Let´s go
TTITLE5=Every time
TTITLE6=Stop before you break my heart
TTITLE7=Naked when you come
TTITLE8=You won´t believe me
TTITLE9=Look here comes the sun
TTITLE10=Cadillac
TTITLE11=Medley
TTITLE12=A change has got to come
TTITLE13=People get ready
EXTD=YEAR: 2000
EXTT0=
EXTT1=
EXTT2=
EXTT3=
EXTT4=
EXTT5=
EXTT6=
EXTT7=
EXTT8=
EXTT9=
EXTT10=
EXTT11=
EXTT12=
EXTT13=
PLAYORDER=
